<svg xmlns="http://www.w3.org/2000/svg" width="420" height="860" viewBox="0 0 420 860" role="img" aria-labelledby="title desc">
  <title id="title">Project Steward AI Session SESSIONS Tab 效果图</title>
  <desc id="desc">VS Code 深色主题侧边栏中的当前项目卡片，SESSIONS Tab 保留 provider 筛选并显示完整历史，包括 Active Session。</desc>
  <defs>
    <filter id="shadow" x="-20%" y="-20%" width="140%" height="160%"><feDropShadow dx="0" dy="3" stdDeviation="5" flood-color="#000" flood-opacity=".38"/></filter>
    <linearGradient id="selectedTab" x1="0" x2="0" y1="0" y2="1"><stop offset="0" stop-color="#30343c"/><stop offset="1" stop-color="#25282e"/></linearGradient>
    <style>
      .ui { font-family: -apple-system, BlinkMacSystemFont, "Segoe UI", sans-serif; }
      .label { fill:#9da0a6; font-size:11px; font-weight:700; letter-spacing:.8px; }
      .title { fill:#f1f1f1; font-size:14px; font-weight:650; }
      .rowTitle { fill:#f1f1f1; font-size:12px; font-weight:650; }
      .desc { fill:#aeb0b5; font-size:11px; }
      .meta { fill:#8d9097; font-size:10px; }
      .tab { fill:#b8bbc2; font-size:11px; font-weight:700; letter-spacing:.45px; }
      .tabActive { fill:#fff; }
    </style>
  </defs>
  <rect width="420" height="860" fill="#181818"/>
  <rect width="420" height="34" fill="#202124"/>
  <text class="ui label" x="18" y="22" fill="#c8c8c8">PROJECT STEWARD</text>
  <path d="M389 12h14M389 17h14M389 22h14" stroke="#9da0a6" stroke-width="1.5"/>

  <rect x="12" y="44" width="316" height="34" rx="17" fill="#25262a" stroke="#35373d"/>
  <circle cx="31" cy="61" r="6" fill="none" stroke="#8e9198" stroke-width="1.5"/>
  <path d="M35.5 65.5l5 5" stroke="#8e9198" stroke-width="1.5"/>
  <text class="ui desc" x="51" y="65">Search all projects and sessions</text>
  <circle cx="347" cy="61" r="15" fill="#242529" stroke="#34363b"/>
  <path d="M340 58h14m-11-5l-4 5 4 5m8 6l4-5-4-5" fill="none" stroke="#aeb0b5" stroke-width="1.4"/>
  <circle cx="386" cy="61" r="15" fill="#242529" stroke="#34363b"/>
  <circle cx="386" cy="61" r="5" fill="none" stroke="#aeb0b5" stroke-width="1.4"/>
  <path d="M386 50v4m0 14v4m-11-11h4m14 0h4" stroke="#aeb0b5" stroke-width="1.4"/>

  <rect x="12" y="88" width="396" height="42" rx="9" fill="#111214" stroke="#34363b"/>
  <rect x="16" y="92" width="194" height="34" rx="7" fill="url(#selectedTab)" stroke="#4c9aff"/>
  <text class="ui tab tabActive" x="92" y="113">OPEN</text>
  <text class="ui tab" x="276" y="113">PROJECTS</text>
  <line x1="0" y1="140" x2="420" y2="140" stroke="#303136"/>

  <text class="ui label" x="18" y="168">CURRENT WORKSPACE</text>
  <rect x="14" y="181" width="392" height="573" rx="17" fill="#25272c" stroke="#4c9aff" stroke-width="1.5" filter="url(#shadow)"/>
  <rect x="14" y="181" width="5" height="573" rx="2.5" fill="#4c9aff"/>
  <circle cx="38" cy="210" r="11" fill="#181a1e" stroke="#50535b"/>
  <path d="M32 205h5l2 2h6v8H32z" fill="none" stroke="#8fc7ff" stroke-width="1.4"/>
  <text class="ui title" x="58" y="207">vscode-dashboard</text>
  <text class="ui desc" x="58" y="225">Project Steward extension</text>
  <rect x="277" y="193" width="49" height="22" rx="11" fill="#1b1c20" stroke="#45474e"/>
  <text class="ui meta" x="289" y="208" fill="#c8cad0">AI 18</text>
  <rect x="331" y="193" width="59" height="22" rx="11" fill="#182522" stroke="#45b7a5"/>
  <circle cx="342" cy="204" r="3.5" fill="#45b7a5"/><text class="ui meta" x="351" y="208" fill="#91dfd1">3</text>
  <circle cx="386" cy="191" r="8" fill="#d64b4b" stroke="#25272c" stroke-width="2"/><text class="ui meta" x="383" y="195" fill="#fff" font-weight="700">2</text>

  <line x1="30" y1="244" x2="390" y2="244" stroke="#3b3d43"/>
  <text class="ui label" x="30" y="271" fill="#d6d8dc">AI SESSIONS</text>
  <rect x="315" y="253" width="75" height="28" rx="14" fill="#15304a" stroke="#4c9aff"/>
  <path d="M331 263v8m-4-4h8" stroke="#a9d3ff" stroke-width="1.5" stroke-linecap="round"/>
  <text class="ui tab tabActive" x="342" y="271" font-size="10">NEW</text>

  <rect x="30" y="293" width="360" height="38" rx="9" fill="#181a1e" stroke="#3d4047"/>
  <text class="ui tab" x="89" y="316">ACTIVE 3</text>
  <circle cx="177" cy="307" r="4" fill="#d64b4b"/>
  <rect x="212" y="297" width="174" height="30" rx="7" fill="url(#selectedTab)" stroke="#4c9aff"/>
  <text class="ui tab tabActive" x="261" y="316">SESSIONS 18</text>

  <rect x="30" y="344" width="294" height="30" rx="15" fill="#1c1d21" stroke="#45474e"/>
  <text class="ui desc" x="44" y="363" fill="#e1e2e5">Codex · 9 sessions</text>
  <path d="M304 355l5 5 5-5" fill="none" stroke="#aeb0b5" stroke-width="1.4"/>
  <rect x="332" y="344" width="58" height="30" rx="15" fill="#1c1d21" stroke="#45474e"/>
  <circle cx="361" cy="359" r="6" fill="none" stroke="#b6bac2" stroke-width="1.4"/>
  <circle cx="361" cy="359" r="1.5" fill="#b6bac2"/>

  <rect x="30" y="388" width="360" height="74" rx="10" fill="#282b31" stroke="#45b7a5"/>
  <rect x="30" y="397" width="3" height="56" rx="1.5" fill="#4c9aff"/>
  <text class="ui rowTitle" x="48" y="416">设计 Session 管理体验</text>
  <rect x="48" y="428" width="48" height="18" rx="9" fill="#18302b" stroke="#45b7a5"/>
  <text class="ui meta" x="58" y="440" fill="#91dfd1">Active</text>
  <text class="ui meta" x="105" y="440">2 min ago · #019fc4b2</text>
  <circle cx="374" cy="424" r="1.5" fill="#aeb0b5"/><circle cx="380" cy="424" r="1.5" fill="#aeb0b5"/><circle cx="386" cy="424" r="1.5" fill="#aeb0b5"/>

  <rect x="30" y="472" width="360" height="74" rx="10" fill="#222329" stroke="#3b3d43"/>
  <rect x="30" y="481" width="3" height="56" rx="1.5" fill="#4c9aff" opacity=".72"/>
  <path d="M47 493l2.3 4.6 5.1.7-3.7 3.5.9 5-4.6-2.4-4.6 2.4.9-5-3.7-3.5 5.1-.7z" fill="#e4c15a"/>
  <text class="ui rowTitle" x="63" y="501">优化项目切换性能</text>
  <text class="ui meta" x="48" y="526">Yesterday · #019fbb72</text>
  <circle cx="374" cy="508" r="1.5" fill="#aeb0b5"/><circle cx="380" cy="508" r="1.5" fill="#aeb0b5"/><circle cx="386" cy="508" r="1.5" fill="#aeb0b5"/>

  <rect x="30" y="556" width="360" height="74" rx="10" fill="#222329" stroke="#3b3d43"/>
  <rect x="30" y="565" width="3" height="56" rx="1.5" fill="#4c9aff" opacity=".72"/>
  <text class="ui rowTitle" x="48" y="584">发布前检查</text>
  <text class="ui meta" x="48" y="609">2026-07-15 · #019fa139</text>
  <circle cx="374" cy="592" r="1.5" fill="#aeb0b5"/><circle cx="380" cy="592" r="1.5" fill="#aeb0b5"/><circle cx="386" cy="592" r="1.5" fill="#aeb0b5"/>

  <rect x="30" y="641" width="360" height="48" rx="9" fill="#202126" stroke="#36383e"/>
  <text class="ui meta" x="48" y="662">Pinned sessions remain first</text>
  <text class="ui meta" x="48" y="678">Active rows stay in the complete provider history</text>
  <text class="ui meta" x="210" y="728" text-anchor="middle">Scroll for more Codex sessions</text>

  <text class="ui label" x="18" y="793">OTHER WINDOWS</text>
  <rect x="14" y="806" width="392" height="38" rx="10" fill="#222328" stroke="#373940"/>
  <text class="ui desc" x="31" y="830">Provider history remains project-scoped</text>
</svg>
