<svg xmlns="http://www.w3.org/2000/svg" width="420" height="940" viewBox="0 0 420 940" role="img" aria-labelledby="title desc">
  <title id="title">Project Steward 全局搜索状态效果图</title>
  <desc id="desc">搜索期间隐藏 Tab 和折叠按钮，按 AI Sessions、Open Projects 和 Saved Projects 展示结果。</desc>
  <defs>
    <filter id="shadow" x="-20%" y="-20%" width="140%" height="160%">
      <feDropShadow dx="0" dy="2" stdDeviation="4" flood-color="#000" flood-opacity=".3"/>
    </filter>
    <style>
      .ui { font-family: -apple-system, BlinkMacSystemFont, "Segoe UI", sans-serif; }
      .section { fill:#9da0a6; font-size:11px; font-weight:700; letter-spacing:.8px; }
      .title { fill:#f1f1f1; font-size:13px; font-weight:650; }
      .desc { fill:#aeb0b5; font-size:11px; }
      .meta { fill:#8d9097; font-size:10px; }
      .badge { fill:#c7c9cf; font-size:9px; font-weight:650; }
    </style>
  </defs>

  <rect width="420" height="940" fill="#181818"/>
  <rect x="0" y="0" width="420" height="34" fill="#202124"/>
  <text class="ui section" x="18" y="22" fill="#c8c8c8">PROJECT STEWARD</text>
  <path d="M389 12h14M389 17h14M389 22h14" stroke="#9da0a6" stroke-width="1.5"/>

  <rect x="12" y="44" width="350" height="34" rx="17" fill="#25262a" stroke="#4c9aff"/>
  <circle cx="31" cy="61" r="6" fill="none" stroke="#8e9198" stroke-width="1.5"/>
  <path d="M35.5 65.5l5 5" stroke="#8e9198" stroke-width="1.5"/>
  <text class="ui desc" x="51" y="65" fill="#f0f1f3">dashboard</text>
  <circle cx="342" cy="61" r="7" fill="#34363b"/>
  <path d="M339 58l6 6m0-6l-6 6" stroke="#bfc1c6" stroke-width="1.3" stroke-linecap="round"/>
  <circle cx="386" cy="61" r="15" fill="#242529"/>
  <path d="M386 52v3m0 12v3m-9-9h3m12 0h3m-14.5-5.5l2.2 2.2m6.6 6.6l2.2 2.2m0-11l-2.2 2.2m-6.6 6.6l-2.2 2.2" stroke="#aeb0b5" stroke-width="1.5" stroke-linecap="round"/>
  <circle cx="386" cy="61" r="4.5" fill="none" stroke="#aeb0b5" stroke-width="1.5"/>
  <line x1="0" y1="90" x2="420" y2="90" stroke="#303136"/>

  <text class="ui section" x="18" y="119">AI SESSIONS</text>
  <text class="ui meta" x="380" y="119">2</text>

  <rect x="14" y="132" width="392" height="62" rx="11" fill="#25272c" stroke="#4c9aff" filter="url(#shadow)"/>
  <rect x="14" y="142" width="3" height="42" rx="1.5" fill="#4c9aff"/>
  <rect x="29" y="146" width="34" height="34" rx="8" fill="#1c1e22" stroke="#4a4d54"/>
  <path d="M38 156l6 6-6 6m9 0h8" fill="none" stroke="#77c7ff" stroke-width="1.6" stroke-linecap="round" stroke-linejoin="round"/>
  <text class="ui title" x="75" y="158">设计 dashboard 双 Tab</text>
  <text class="ui meta" x="75" y="176">vscode-dashboard · Codex · 刚刚</text>
  <path d="M373 159h9m-4.5-4.5l4.5 4.5-4.5 4.5" fill="none" stroke="#9da0a6" stroke-width="1.4"/>

  <rect x="14" y="202" width="392" height="62" rx="11" fill="#222328" stroke="#3a3c42"/>
  <rect x="14" y="212" width="3" height="42" rx="1.5" fill="#c586c0"/>
  <rect x="29" y="216" width="34" height="34" rx="8" fill="#1c1e22" stroke="#45474e"/>
  <text class="ui title" x="41" y="238" fill="#dca6d8">K</text>
  <text class="ui title" x="75" y="228">Review dashboard rendering</text>
  <text class="ui meta" x="75" y="246">vscode-dashboard · Kimi · 1 小时前</text>
  <path d="M373 229h9m-4.5-4.5l4.5 4.5-4.5 4.5" fill="none" stroke="#9da0a6" stroke-width="1.4"/>

  <text class="ui section" x="18" y="302">OPEN PROJECTS</text>
  <text class="ui meta" x="380" y="302">2</text>

  <rect x="14" y="315" width="392" height="72" rx="14" fill="#25272c" stroke="#4c9aff" filter="url(#shadow)"/>
  <rect x="14" y="335" width="4" height="32" rx="2" fill="#4c9aff"/>
  <circle cx="39" cy="343" r="10" fill="#181a1e" stroke="#50535b"/>
  <path d="M33 339h5l2 2h6v7H33z" fill="none" stroke="#8fc7ff" stroke-width="1.3"/>
  <text class="ui title" x="58" y="345">vscode-dashboard</text>
  <text class="ui desc" x="58" y="364">Current workspace</text>
  <rect x="315" y="331" width="74" height="22" rx="11" fill="#1b1c20" stroke="#4c9aff"/>
  <text class="ui badge" x="327" y="346" fill="#aad4ff">CURRENT</text>
  <text class="ui meta" x="326" y="371">Show sessions</text>

  <rect x="14" y="396" width="392" height="72" rx="14" fill="#222328" stroke="#3a3c42"/>
  <rect x="14" y="416" width="4" height="32" rx="2" fill="#c586c0"/>
  <circle cx="39" cy="424" r="10" fill="#181a1e" stroke="#464951"/>
  <path d="M33 420h5l2 2h6v7H33z" fill="none" stroke="#d4acd0" stroke-width="1.3"/>
  <text class="ui title" x="58" y="426">dashboard-api</text>
  <text class="ui desc" x="58" y="445">Remote service workspace</text>
  <rect x="333" y="412" width="56" height="22" rx="11" fill="#1b1c20" stroke="#4a4d54"/>
  <text class="ui badge" x="349" y="427">SSH</text>
  <text class="ui meta" x="331" y="452">Switch project</text>

  <text class="ui section" x="18" y="506">SAVED PROJECTS</text>
  <text class="ui meta" x="380" y="506">2</text>

  <rect x="14" y="519" width="392" height="88" rx="14" fill="#222328" stroke="#3a3c42" filter="url(#shadow)"/>
  <rect x="14" y="543" width="4" height="40" rx="2" fill="#4c9aff"/>
  <circle cx="39" cy="549" r="10" fill="#181a1e" stroke="#464951"/>
  <path d="M33 545h5l2 2h6v7H33z" fill="none" stroke="#8fc7ff" stroke-width="1.3"/>
  <text class="ui title" x="58" y="551">vscode-dashboard</text>
  <text class="ui desc" x="58" y="570">Project Steward extension</text>
  <rect x="58" y="577" width="66" height="18" rx="9" fill="#2c2e34" stroke="#45474e"/>
  <text class="ui badge" x="70" y="590">FAVORITE</text>
  <rect x="130" y="577" width="52" height="18" rx="9" fill="#2c2e34" stroke="#45474e"/>
  <text class="ui badge" x="142" y="590">TOOLS</text>
  <path d="M373 557h9m-4.5-4.5l4.5 4.5-4.5 4.5" fill="none" stroke="#9da0a6" stroke-width="1.4"/>

  <rect x="14" y="616" width="392" height="88" rx="14" fill="#222328" stroke="#3a3c42" filter="url(#shadow)"/>
  <rect x="14" y="640" width="4" height="40" rx="2" fill="#d7ba7d"/>
  <circle cx="39" cy="646" r="10" fill="#181a1e" stroke="#464951"/>
  <path d="M33 642h5l2 2h6v7H33z" fill="none" stroke="#e0c994" stroke-width="1.3"/>
  <text class="ui title" x="58" y="648">dashboard-components</text>
  <text class="ui desc" x="58" y="667">Shared UI component library</text>
  <rect x="58" y="674" width="78" height="18" rx="9" fill="#2c2e34" stroke="#45474e"/>
  <text class="ui badge" x="69" y="687">FRONTEND</text>
  <path d="M373 654h9m-4.5-4.5l4.5 4.5-4.5 4.5" fill="none" stroke="#9da0a6" stroke-width="1.4"/>

  <rect x="104" y="746" width="212" height="36" rx="18" fill="#202126" stroke="#36383e"/>
  <text class="ui meta" x="210" y="768" text-anchor="middle">3 result types · one global search</text>
  <text class="ui meta" x="210" y="835" text-anchor="middle">Clear search to return to the previous Tab</text>
</svg>
