<svg xmlns="http://www.w3.org/2000/svg" width="420" height="940" viewBox="0 0 420 940" role="img" aria-labelledby="title desc">
  <title id="title">Project Steward PROJECTS 页面效果图</title>
  <desc id="desc">VS Code 深色主题侧边栏，展示静态 Favorites、项目组、搜索和项目卡片。</desc>
  <defs>
    <filter id="shadow" x="-20%" y="-20%" width="140%" height="160%">
      <feDropShadow dx="0" dy="2" stdDeviation="4" flood-color="#000" flood-opacity=".3"/>
    </filter>
    <linearGradient id="selectedTab" x1="0" x2="0" y1="0" y2="1">
      <stop offset="0" stop-color="#30333a"/>
      <stop offset="1" stop-color="#26282e"/>
    </linearGradient>
    <style>
      .ui { font-family: -apple-system, BlinkMacSystemFont, "Segoe UI", sans-serif; }
      .label { fill:#d7d8dc; font-size:12px; font-weight:700; letter-spacing:.4px; }
      .title { fill:#f1f1f1; font-size:14px; font-weight:650; }
      .desc { fill:#aeb0b5; font-size:11px; }
      .meta { fill:#8d9097; font-size:10px; }
      .tab { fill:#b8bbc2; font-size:12px; font-weight:700; letter-spacing:.6px; }
      .tabActive { fill:#fff; }
    </style>
  </defs>

  <rect width="420" height="940" fill="#181818"/>
  <rect x="0" y="0" width="420" height="34" fill="#202124"/>
  <text class="ui label" x="18" y="22" fill="#c8c8c8" font-size="11">PROJECT STEWARD</text>
  <path d="M389 12h14M389 17h14M389 22h14" stroke="#9da0a6" stroke-width="1.5"/>

  <rect x="12" y="44" width="316" height="34" rx="17" fill="#25262a" stroke="#35373d"/>
  <circle cx="31" cy="61" r="6" fill="none" stroke="#8e9198" stroke-width="1.5"/>
  <path d="M35.5 65.5l5 5" stroke="#8e9198" stroke-width="1.5"/>
  <text class="ui desc" x="51" y="65">Search all projects and sessions</text>
  <circle cx="347" cy="61" r="15" fill="#242529" stroke="#34363b"/>
  <path d="M340 58h14m-11-5l-4 5 4 5m8 6l4-5-4-5" fill="none" stroke="#aeb0b5" stroke-width="1.4" stroke-linecap="round" stroke-linejoin="round"/>
  <circle cx="386" cy="61" r="15" fill="#242529"/>
  <path d="M386 52v3m0 12v3m-9-9h3m12 0h3m-14.5-5.5l2.2 2.2m6.6 6.6l2.2 2.2m0-11l-2.2 2.2m-6.6 6.6l-2.2 2.2" stroke="#aeb0b5" stroke-width="1.5" stroke-linecap="round"/>
  <circle cx="386" cy="61" r="4.5" fill="none" stroke="#aeb0b5" stroke-width="1.5"/>

  <rect x="12" y="88" width="396" height="42" rx="9" fill="#111214" stroke="#34363b"/>
  <text class="ui tab" x="92" y="113">OPEN</text>
  <rect x="210" y="92" width="194" height="34" rx="7" fill="url(#selectedTab)" stroke="#4c9aff"/>
  <text class="ui tab tabActive" x="275" y="113">PROJECTS</text>
  <line x1="0" y1="140" x2="420" y2="140" stroke="#303136"/>

  <rect x="14" y="153" width="392" height="34" rx="8" fill="#25262a" stroke="#3a3c42"/>
  <path d="M29 165l5 5 5-5" fill="none" stroke="#c5c7cc" stroke-width="1.5"/>
  <path d="M52 162l2.4 5 5.5.6-4 3.8 1.1 5.4-5-2.7-5 2.7 1.1-5.4-4-3.8 5.5-.6z" fill="#e4c15a"/>
  <text class="ui label" x="68" y="175">FAVORITES</text>
  <text class="ui meta" x="379" y="175">2</text>

  <rect x="16" y="198" width="388" height="67" rx="14" fill="#222328" stroke="#3a3c42" filter="url(#shadow)"/>
  <rect x="16" y="217" width="4" height="29" rx="2" fill="#4c9aff"/>
  <circle cx="40" cy="224" r="10" fill="#181a1e" stroke="#464951"/>
  <path d="M34 220h5l2 2h6v7H34z" fill="none" stroke="#8fc7ff" stroke-width="1.3"/>
  <text class="ui title" x="59" y="226">vscode-dashboard</text>
  <text class="ui desc" x="59" y="245">Project Steward extension</text>
  <path d="M379 237l2.3 4.6 5.1.7-3.7 3.5.9 5-4.6-2.4-4.6 2.4.9-5-3.7-3.5 5.1-.7z" fill="#e4c15a"/>

  <rect x="16" y="274" width="388" height="67" rx="14" fill="#222328" stroke="#3a3c42" filter="url(#shadow)"/>
  <rect x="16" y="293" width="4" height="29" rx="2" fill="#4ec9b0"/>
  <circle cx="40" cy="300" r="10" fill="#181a1e" stroke="#464951"/>
  <path d="M34 296h5l2 2h6v7H34z" fill="none" stroke="#76dcc8" stroke-width="1.3"/>
  <text class="ui title" x="59" y="302">reddb</text>
  <text class="ui desc" x="59" y="321">Distributed database workspace</text>
  <path d="M379 313l2.3 4.6 5.1.7-3.7 3.5.9 5-4.6-2.4-4.6 2.4.9-5-3.7-3.5 5.1-.7z" fill="#e4c15a"/>

  <rect x="14" y="359" width="392" height="34" rx="8" fill="#25262a" stroke="#3a3c42"/>
  <path d="M29 371l5 5 5-5" fill="none" stroke="#c5c7cc" stroke-width="1.5"/>
  <text class="ui label" x="50" y="381">DATABASE</text>
  <text class="ui meta" x="379" y="381">2</text>

  <rect x="16" y="404" width="388" height="67" rx="14" fill="#222328" stroke="#3a3c42" filter="url(#shadow)"/>
  <rect x="16" y="423" width="4" height="29" rx="2" fill="#c586c0"/>
  <circle cx="40" cy="430" r="10" fill="#181a1e" stroke="#464951"/>
  <path d="M34 426h5l2 2h6v7H34z" fill="none" stroke="#d4acd0" stroke-width="1.3"/>
  <text class="ui title" x="59" y="432">data-platform</text>
  <text class="ui desc" x="59" y="451">Feature store and pipelines</text>
  <path d="M379 443l2.3 4.6 5.1.7-3.7 3.5.9 5-4.6-2.4-4.6 2.4.9-5-3.7-3.5 5.1-.7z" fill="none" stroke="#858890" stroke-width="1.2"/>

  <rect x="16" y="480" width="388" height="67" rx="14" fill="#222328" stroke="#3a3c42" filter="url(#shadow)"/>
  <rect x="16" y="499" width="4" height="29" rx="2" fill="#d7ba7d"/>
  <circle cx="40" cy="506" r="10" fill="#181a1e" stroke="#464951"/>
  <path d="M34 502h5l2 2h6v7H34z" fill="none" stroke="#e0c994" stroke-width="1.3"/>
  <text class="ui title" x="59" y="508">warehouse-tools</text>
  <text class="ui desc" x="59" y="527">Analytics maintenance utilities</text>
  <path d="M379 519l2.3 4.6 5.1.7-3.7 3.5.9 5-4.6-2.4-4.6 2.4.9-5-3.7-3.5 5.1-.7z" fill="none" stroke="#858890" stroke-width="1.2"/>

  <rect x="14" y="565" width="392" height="34" rx="8" fill="#25262a" stroke="#3a3c42"/>
  <path d="M29 577l5 5 5-5" fill="none" stroke="#c5c7cc" stroke-width="1.5"/>
  <text class="ui label" x="50" y="587">TOOLS</text>
  <text class="ui meta" x="379" y="587">3</text>

  <rect x="16" y="610" width="388" height="67" rx="14" fill="#222328" stroke="#3a3c42" filter="url(#shadow)"/>
  <rect x="16" y="629" width="4" height="29" rx="2" fill="#6a9955"/>
  <circle cx="40" cy="636" r="10" fill="#181a1e" stroke="#464951"/>
  <path d="M34 632h5l2 2h6v7H34z" fill="none" stroke="#93c47d" stroke-width="1.3"/>
  <text class="ui title" x="59" y="638">release-automation</text>
  <text class="ui desc" x="59" y="657">Build and publishing workflows</text>
  <path d="M379 649l2.3 4.6 5.1.7-3.7 3.5.9 5-4.6-2.4-4.6 2.4.9-5-3.7-3.5 5.1-.7z" fill="none" stroke="#858890" stroke-width="1.2"/>

  <rect x="16" y="686" width="388" height="67" rx="14" fill="#222328" stroke="#3a3c42" filter="url(#shadow)"/>
  <rect x="16" y="705" width="4" height="29" rx="2" fill="#569cd6"/>
  <circle cx="40" cy="712" r="10" fill="#181a1e" stroke="#464951"/>
  <path d="M34 708h5l2 2h6v7H34z" fill="none" stroke="#8fc7ff" stroke-width="1.3"/>
  <text class="ui title" x="59" y="714">developer-notes</text>
  <text class="ui desc" x="59" y="733">Local docs and snippets</text>
  <path d="M379 725l2.3 4.6 5.1.7-3.7 3.5.9 5-4.6-2.4-4.6 2.4.9-5-3.7-3.5 5.1-.7z" fill="none" stroke="#858890" stroke-width="1.2"/>

  <rect x="16" y="762" width="388" height="67" rx="14" fill="#222328" stroke="#3a3c42" filter="url(#shadow)"/>
  <rect x="16" y="781" width="4" height="29" rx="2" fill="#ce9178"/>
  <circle cx="40" cy="788" r="10" fill="#181a1e" stroke="#464951"/>
  <path d="M34 784h5l2 2h6v7H34z" fill="none" stroke="#dfa58f" stroke-width="1.3"/>
  <text class="ui title" x="59" y="790">benchmark-suite</text>
  <text class="ui desc" x="59" y="809">Performance test workspace</text>
  <path d="M379 801l2.3 4.6 5.1.7-3.7 3.5.9 5-4.6-2.4-4.6 2.4.9-5-3.7-3.5 5.1-.7z" fill="none" stroke="#858890" stroke-width="1.2"/>

  <rect x="14" y="849" width="392" height="42" rx="9" fill="none" stroke="#3c3e44" stroke-dasharray="5 4"/>
  <circle cx="37" cy="870" r="10" fill="#232429"/>
  <path d="M37 865v10m-5-5h10" stroke="#aeb0b5" stroke-width="1.5" stroke-linecap="round"/>
  <text class="ui desc" x="55" y="874">New Group</text>
  <text class="ui meta" x="210" y="920" text-anchor="middle">Static library · no runtime state</text>
</svg>
