<svg xmlns="http://www.w3.org/2000/svg" width="420" height="940" viewBox="0 0 420 940" role="img" aria-labelledby="title desc">
  <title id="title">Project Steward OPEN 页面效果图</title>
  <desc id="desc">VS Code 深色主题侧边栏，展示当前工作区 AI sessions 和其他窗口的紧凑项目导航卡。</desc>
  <defs>
    <filter id="shadow" x="-20%" y="-20%" width="140%" height="160%">
      <feDropShadow dx="0" dy="3" stdDeviation="5" flood-color="#000" flood-opacity=".36"/>
    </filter>
    <linearGradient id="selectedTab" x1="0" x2="0" y1="0" y2="1">
      <stop offset="0" stop-color="#30333a"/>
      <stop offset="1" stop-color="#26282e"/>
    </linearGradient>
    <style>
      .ui { font-family: -apple-system, BlinkMacSystemFont, "Segoe UI", sans-serif; }
      .label { fill:#9da0a6; font-size:11px; font-weight:700; letter-spacing:.8px; }
      .title { fill:#f1f1f1; font-size:14px; font-weight:650; }
      .desc { fill:#aeb0b5; font-size:11px; }
      .meta { fill:#8d9097; font-size:10px; }
      .tab { fill:#b8bbc2; font-size:12px; font-weight:700; letter-spacing:.6px; }
      .tabActive { fill:#fff; }
    </style>
  </defs>

  <rect width="420" height="940" fill="#181818"/>
  <rect x="0" y="0" width="420" height="34" fill="#202124"/>
  <text class="ui label" x="18" y="22" fill="#c8c8c8">PROJECT STEWARD</text>
  <path d="M389 12h14M389 17h14M389 22h14" stroke="#9da0a6" stroke-width="1.5"/>

  <rect x="12" y="44" width="316" height="34" rx="17" fill="#25262a" stroke="#35373d"/>
  <circle cx="31" cy="61" r="6" fill="none" stroke="#8e9198" stroke-width="1.5"/>
  <path d="M35.5 65.5l5 5" stroke="#8e9198" stroke-width="1.5"/>
  <text class="ui desc" x="51" y="65">Search all projects and sessions</text>
  <circle cx="347" cy="61" r="15" fill="#242529" stroke="#34363b"/>
  <path d="M340 58h14m-11-5l-4 5 4 5m8 6l4-5-4-5" fill="none" stroke="#aeb0b5" stroke-width="1.4" stroke-linecap="round" stroke-linejoin="round"/>
  <circle cx="386" cy="61" r="15" fill="#242529"/>
  <path d="M386 52v3m0 12v3m-9-9h3m12 0h3m-14.5-5.5l2.2 2.2m6.6 6.6l2.2 2.2m0-11l-2.2 2.2m-6.6 6.6l-2.2 2.2" stroke="#aeb0b5" stroke-width="1.5" stroke-linecap="round"/>
  <circle cx="386" cy="61" r="4.5" fill="none" stroke="#aeb0b5" stroke-width="1.5"/>

  <rect x="12" y="88" width="396" height="42" rx="9" fill="#111214" stroke="#34363b"/>
  <rect x="16" y="92" width="194" height="34" rx="7" fill="url(#selectedTab)" stroke="#4c9aff"/>
  <text class="ui tab tabActive" x="92" y="113">OPEN</text>
  <text class="ui tab" x="276" y="113">PROJECTS</text>
  <line x1="0" y1="140" x2="420" y2="140" stroke="#303136"/>

  <text class="ui label" x="18" y="168">CURRENT WORKSPACE</text>
  <rect x="14" y="181" width="392" height="342" rx="17" fill="#25272c" stroke="#4c9aff" stroke-width="1.5" filter="url(#shadow)"/>
  <rect x="14" y="181" width="5" height="342" rx="2.5" fill="#4c9aff"/>
  <circle cx="38" cy="210" r="11" fill="#181a1e" stroke="#50535b"/>
  <path d="M32 205h5l2 2h6v8H32z" fill="none" stroke="#8fc7ff" stroke-width="1.4" stroke-linejoin="round"/>
  <text class="ui title" x="58" y="207">vscode-dashboard</text>
  <text class="ui desc" x="58" y="225">Project Steward extension</text>
  <rect x="337" y="194" width="53" height="22" rx="11" fill="#1b1c20" stroke="#d64b4b"/>
  <text class="ui meta" x="348" y="209" fill="#f2b2b2">AI 5</text>
  <circle cx="383" cy="198" r="8" fill="#d64b4b" stroke="#25272c" stroke-width="2"/>
  <text class="ui meta" x="380" y="202" fill="#fff" font-weight="700">2</text>

  <line x1="30" y1="244" x2="390" y2="244" stroke="#3b3d43"/>
  <rect x="30" y="257" width="250" height="30" rx="15" fill="#1c1d21" stroke="#45474e"/>
  <text class="ui desc" x="44" y="276" fill="#e1e2e5">Codex · 3 sessions</text>
  <path d="M260 269l5 5 5-5" fill="none" stroke="#aeb0b5" stroke-width="1.4"/>
  <rect x="288" y="257" width="45" height="30" rx="15" fill="#1c1d21" stroke="#45474e"/>
  <path d="M310 265v14m-7-7h14" stroke="#b6bac2" stroke-width="1.5" stroke-linecap="round"/>
  <rect x="341" y="257" width="49" height="30" rx="15" fill="#1c1d21" stroke="#45474e"/>
  <circle cx="366" cy="272" r="6" fill="none" stroke="#b6bac2" stroke-width="1.4"/>
  <circle cx="366" cy="272" r="1.5" fill="#b6bac2"/>

  <rect x="30" y="298" width="360" height="58" rx="9" fill="#30323a" stroke="#4c9aff"/>
  <rect x="30" y="307" width="3" height="40" rx="1.5" fill="#4c9aff"/>
  <rect x="43" y="311" width="34" height="34" rx="8" fill="#1c1e22" stroke="#4a4d54"/>
  <path d="M52 321l6 6-6 6m9 0h8" fill="none" stroke="#77c7ff" stroke-width="1.6" stroke-linecap="round" stroke-linejoin="round"/>
  <text class="ui title" x="89" y="323" font-size="12">设计双 Tab 产品形态</text>
  <text class="ui meta" x="89" y="341">刚刚 · Codex · 019fc4b2</text>
  <circle cx="375" cy="308" r="6" fill="#d64b4b" stroke="#30323a" stroke-width="2"/>

  <rect x="30" y="362" width="360" height="58" rx="9" fill="#222329" stroke="#383a41"/>
  <rect x="30" y="371" width="3" height="40" rx="1.5" fill="#45b7a5" opacity=".8"/>
  <rect x="43" y="375" width="34" height="34" rx="8" fill="#1c1e22" stroke="#41444b"/>
  <path d="M52 385l6 6-6 6m9 0h8" fill="none" stroke="#65d5c3" stroke-width="1.6" stroke-linecap="round" stroke-linejoin="round"/>
  <text class="ui title" x="89" y="387" font-size="12">修复 session 名称持久化</text>
  <text class="ui meta" x="89" y="405">18 分钟前 · Codex · 019fb981</text>

  <rect x="30" y="426" width="360" height="58" rx="9" fill="#222329" stroke="#383a41"/>
  <rect x="30" y="435" width="3" height="40" rx="1.5" fill="#c586c0" opacity=".75"/>
  <rect x="43" y="439" width="34" height="34" rx="8" fill="#1c1e22" stroke="#41444b"/>
  <text class="ui title" x="54" y="461" font-size="13" fill="#dca6d8">K</text>
  <text class="ui title" x="89" y="451" font-size="12">检查跨窗口项目聚合</text>
  <text class="ui meta" x="89" y="469">1 小时前 · Kimi · a73c9f20</text>
  <text class="ui meta" x="190" y="507">3 sessions visible · scroll for more</text>

  <path d="M19 549l5 5 5-5" fill="none" stroke="#9da0a6" stroke-width="1.5"/>
  <text class="ui label" x="36" y="558">OTHER WINDOWS</text>
  <text class="ui meta" x="374" y="558">3</text>

  <rect x="14" y="572" width="392" height="76" rx="14" fill="#222328" stroke="#3a3c42"/>
  <circle cx="23" cy="580" r="8" fill="#d64b4b" stroke="#222328" stroke-width="2"/>
  <text class="ui meta" x="20" y="584" fill="#fff" font-weight="700">2</text>
  <rect x="14" y="592" width="4" height="36" rx="2" fill="#c586c0"/>
  <circle cx="39" cy="600" r="10" fill="#181a1e" stroke="#464951"/>
  <path d="M33 596h5l2 2h6v7H33z" fill="none" stroke="#d4acd0" stroke-width="1.3"/>
  <text class="ui title" x="58" y="602">data-platform</text>
  <text class="ui desc" x="58" y="622">Feature store and pipelines</text>
  <rect x="323" y="592" width="65" height="22" rx="11" fill="#1b1c20" stroke="#4a4d54"/>
  <text class="ui meta" x="343" y="607" fill="#c6c8ce">SSH</text>
  <path d="M367 625l7 0m-3.5-3.5l3.5 3.5-3.5 3.5" fill="none" stroke="#8d9097" stroke-width="1.4"/>

  <rect x="14" y="658" width="392" height="76" rx="14" fill="#222328" stroke="#3a3c42"/>
  <rect x="14" y="678" width="4" height="36" rx="2" fill="#4ec9b0"/>
  <circle cx="39" cy="686" r="10" fill="#181a1e" stroke="#464951"/>
  <path d="M33 682h5l2 2h6v7H33z" fill="none" stroke="#76dcc8" stroke-width="1.3"/>
  <text class="ui title" x="58" y="688">reddb</text>
  <text class="ui desc" x="58" y="708">Distributed database workspace</text>
  <rect x="276" y="678" width="112" height="22" rx="11" fill="#1b1c20" stroke="#4a4d54"/>
  <text class="ui meta" x="292" y="693" fill="#c6c8ce">DEV CONTAINER</text>
  <path d="M367 711l7 0m-3.5-3.5l3.5 3.5-3.5 3.5" fill="none" stroke="#8d9097" stroke-width="1.4"/>

  <rect x="14" y="744" width="392" height="76" rx="14" fill="#222328" stroke="#3a3c42"/>
  <rect x="14" y="764" width="4" height="36" rx="2" fill="#d7ba7d"/>
  <circle cx="39" cy="772" r="10" fill="#181a1e" stroke="#464951"/>
  <path d="M33 768h5l2 2h6v7H33z" fill="none" stroke="#e0c994" stroke-width="1.3"/>
  <text class="ui title" x="58" y="774">notes-and-tools</text>
  <text class="ui desc" x="58" y="794">Personal developer utilities</text>
  <rect x="322" y="764" width="66" height="22" rx="11" fill="#1b1c20" stroke="#4a4d54"/>
  <text class="ui meta" x="338" y="779" fill="#c6c8ce">LOCAL</text>
  <path d="M367 797l7 0m-3.5-3.5l3.5 3.5-3.5 3.5" fill="none" stroke="#8d9097" stroke-width="1.4"/>

  <text class="ui meta" x="210" y="862" text-anchor="middle">Other windows are navigation-only</text>
  <rect x="128" y="879" width="164" height="30" rx="15" fill="#202126" stroke="#36383e"/>
  <circle cx="148" cy="894" r="4" fill="#4c9aff"/>
  <text class="ui meta" x="160" y="898">Updated across VS Code windows</text>
</svg>
